<svg width="38" height="38" viewBox="0 0 38 38" fill="none" xmlns="http://www.w3.org/2000/svg">
<path fill-rule="evenodd" clip-rule="evenodd" d="M0 19C0 8.50659 8.50659 0 19 0C29.4934 0 38 8.50659 38 19C38 29.4934 29.4934 38 19 38C8.50659 38 0 29.4934 0 19ZM19.0009 8.86667C16.2489 8.86667 15.9035 8.8787 14.8226 8.92789C13.7438 8.97729 13.0074 9.14808 12.3631 9.39867C11.6966 9.6575 11.1313 10.0037 10.568 10.5672C10.0044 11.1304 9.65813 11.6958 9.39846 12.3621C9.14724 13.0066 8.97623 13.7432 8.92768 14.8215C8.87933 15.9024 8.86667 16.248 8.86667 19.0001C8.86667 21.7522 8.87891 22.0965 8.92789 23.1774C8.9775 24.2562 9.14829 24.9926 9.39867 25.6369C9.65771 26.3034 10.0039 26.8687 10.5674 27.432C11.1304 27.9956 11.6958 28.3427 12.3619 28.6015C13.0066 28.8521 13.7432 29.0229 14.8218 29.0723C15.9027 29.1215 16.2478 29.1335 18.9997 29.1335C21.752 29.1335 22.0963 29.1215 23.1772 29.0723C24.256 29.0229 24.9932 28.8521 25.6379 28.6015C26.3042 28.3427 26.8687 27.9956 27.4318 27.432C27.9954 26.8687 28.3417 26.3034 28.6013 25.6371C28.8504 24.9926 29.0214 24.256 29.0721 23.1776C29.1207 22.0967 29.1333 21.7522 29.1333 19.0001C29.1333 16.248 29.1207 15.9027 29.0721 14.8218C29.0214 13.743 28.8504 13.0066 28.6013 12.3623C28.3417 11.6958 27.9954 11.1304 27.4318 10.5672C26.8681 10.0035 26.3044 9.65729 25.6373 9.39867C24.9913 9.14808 24.2545 8.97729 23.1757 8.92789C22.0948 8.8787 21.7507 8.86667 18.9978 8.86667H19.0009Z" fill="white"/>
<path fill-rule="evenodd" clip-rule="evenodd" d="M18.0919 10.6928C18.3617 10.6924 18.6627 10.6928 19.0009 10.6928C21.7066 10.6928 22.0273 10.7025 23.0957 10.7511C24.0837 10.7962 24.6199 10.9613 24.9771 11.1C25.45 11.2837 25.7872 11.5033 26.1416 11.8579C26.4963 12.2126 26.7159 12.5504 26.9 13.0233C27.0387 13.3801 27.204 13.9163 27.2489 14.9043C27.2975 15.9725 27.3081 16.2934 27.3081 18.9978C27.3081 21.7021 27.2975 22.023 27.2489 23.0913C27.2038 24.0793 27.0387 24.6155 26.9 24.9723C26.7163 25.4452 26.4963 25.7819 26.1416 26.1364C25.787 26.491 25.4503 26.7106 24.9771 26.8943C24.6204 27.0336 24.0837 27.1983 23.0957 27.2434C22.0275 27.292 21.7066 27.3026 19.0009 27.3026C16.2951 27.3026 15.9744 27.292 14.9062 27.2434C13.9182 27.1978 13.382 27.0328 13.0245 26.8941C12.5517 26.7104 12.2139 26.4908 11.8592 26.1362C11.5045 25.7815 11.285 25.4446 11.1009 24.9714C10.9622 24.6147 10.7969 24.0784 10.7519 23.0904C10.7034 22.0222 10.6936 21.7013 10.6936 18.9953C10.6936 16.2892 10.7034 15.97 10.7519 14.9018C10.7971 13.9138 10.9622 13.3775 11.1009 13.0203C11.2845 12.5474 11.5045 12.2096 11.8592 11.855C12.2139 11.5003 12.5517 11.2807 13.0245 11.0967C13.3817 10.9573 13.9182 10.7927 14.9062 10.7473C15.841 10.705 16.2033 10.6924 18.0919 10.6903V10.6928ZM24.4101 12.3754C23.7388 12.3754 23.1941 12.9194 23.1941 13.591C23.1941 14.2623 23.7388 14.807 24.4101 14.807C25.0814 14.807 25.6261 14.2623 25.6261 13.591C25.6261 12.9196 25.0814 12.3754 24.4101 12.3754ZM19.0009 13.7962C16.1271 13.7962 13.797 16.1262 13.797 19.0001C13.797 21.874 16.1271 24.203 19.0009 24.203C21.8748 24.203 24.204 21.874 24.204 19.0001C24.204 16.1262 21.8748 13.7962 19.0009 13.7962Z" fill="white"/>
<path fill-rule="evenodd" clip-rule="evenodd" d="M19.001 15.6223C20.8663 15.6223 22.3788 17.1345 22.3788 19.0001C22.3788 20.8655 20.8663 22.3779 19.001 22.3779C17.1353 22.3779 15.6231 20.8655 15.6231 19.0001C15.6231 17.1345 17.1353 15.6223 19.001 15.6223Z" fill="white"/>
</svg>
