<svg width="38" height="38" viewBox="0 0 38 38" fill="none" xmlns="http://www.w3.org/2000/svg">
<path fill-rule="evenodd" clip-rule="evenodd" d="M0 19C0 8.50659 8.50659 0 19 0C29.4934 0 38 8.50659 38 19C38 29.4934 29.4934 38 19 38C8.50659 38 0 29.4934 0 19ZM28.7098 14.308C28.4767 13.4126 27.79 12.7075 26.9179 12.4682C25.3376 12.0333 19 12.0333 19 12.0333C19 12.0333 12.6624 12.0333 11.082 12.4682C10.2099 12.7075 9.52315 13.4126 9.29008 14.308C8.86667 15.9307 8.86667 19.3167 8.86667 19.3167C8.86667 19.3167 8.86667 22.7025 9.29008 24.3254C9.52315 25.2207 10.2099 25.9258 11.082 26.1652C12.6624 26.6 19 26.6 19 26.6C19 26.6 25.3376 26.6 26.9179 26.1652C27.79 25.9258 28.4767 25.2207 28.7098 24.3254C29.1333 22.7025 29.1333 19.3167 29.1333 19.3167C29.1333 19.3167 29.1333 15.9307 28.7098 14.308Z" fill="white"/>
<path fill-rule="evenodd" clip-rule="evenodd" d="M17.1 22.7992V16.4658L22.1666 19.6326L17.1 22.7992Z" fill="white"/>
</svg>
