<svg width="61" height="28" viewBox="0 0 61 28" fill="none" xmlns="http://www.w3.org/2000/svg">
<path d="M14.7007 6.57396C15.3107 5.84349 15.7377 4.80871 15.6157 3.77393C14.7007 3.8348 13.6637 4.38262 13.0537 5.05219C12.5047 5.66088 12.0167 6.75656 12.1387 7.73048C13.1147 7.91309 14.0907 7.36526 14.7007 6.57396ZM15.6157 8.03483C14.1517 7.97396 12.9317 8.82613 12.2607 8.82613C11.5897 8.82613 10.5527 8.0957 9.39366 8.0957C7.92966 8.15656 6.58766 8.94787 5.79466 10.287C4.26966 12.9044 5.36766 16.8609 6.89266 18.9913C7.62466 20.0261 8.47866 21.2435 9.63766 21.1826C10.7357 21.1217 11.1627 20.4522 12.4437 20.4522C13.7247 20.4522 14.1517 21.1827 15.3107 21.1218C16.4697 21.0609 17.2627 20.087 17.9947 18.9913C18.8487 17.774 19.1537 16.5566 19.1537 16.5566C19.0927 16.4957 16.8357 15.6435 16.8357 13.0261C16.7747 10.8348 18.6047 9.80004 18.7267 9.73917C17.7507 8.21743 16.1647 8.0957 15.6157 8.03483Z" fill="black"/>
<path d="M28.06 5.05213C31.171 5.05213 33.367 7.18255 33.367 10.2869C33.367 13.3912 31.171 15.5825 27.999 15.5825H24.583V20.9999H22.082V5.05213H28.06ZM24.522 13.4521H27.328C29.463 13.4521 30.683 12.2956 30.683 10.2869C30.683 8.2782 29.463 7.12168 27.328 7.12168H24.461L24.522 13.4521ZM33.977 17.713C33.977 15.7043 35.563 14.426 38.308 14.2434L41.541 14.0608V13.1478C41.541 11.8695 40.626 11.0782 39.223 11.0782C37.82 11.0782 36.966 11.7478 36.783 12.7825H34.526C34.648 10.6521 36.478 9.13037 39.345 9.13037C42.151 9.13037 43.981 10.5912 43.981 12.9652V20.9999H41.724V19.113H41.663C40.992 20.3912 39.528 21.2434 38.003 21.2434C35.563 21.2434 33.977 19.7825 33.977 17.713ZM41.541 16.6782V15.7652L38.674 15.9478C37.21 16.0086 36.417 16.6782 36.417 17.6521C36.417 18.6869 37.271 19.3565 38.552 19.3565C40.199 19.3565 41.541 18.1999 41.541 16.6782ZM46.055 25.3217V23.3739C46.238 23.4347 46.665 23.4347 46.787 23.4347C47.885 23.4347 48.495 22.9478 48.861 21.7912C48.861 21.7304 49.044 21.0608 49.044 21.0608L44.835 9.43472H47.397L50.386 18.9304H50.447L53.436 9.43472H55.998L51.667 21.7304C50.63 24.5304 49.532 25.4434 47.092 25.4434C46.848 25.3825 46.238 25.3825 46.055 25.3217Z" fill="black"/>
</svg>
