<svg width="62" height="28" viewBox="0 0 62 28" fill="none" xmlns="http://www.w3.org/2000/svg">
<path d="M21.4519 14.487C21.4519 13.8783 21.3899 13.2087 21.2659 12.6609H12.5859V16.1304H17.6079C17.4219 17.287 16.7399 18.2609 15.7479 18.8696V21.1218H18.7239C20.4599 19.6001 21.4519 17.287 21.4519 14.487Z" fill="#4285F4"/>
<path d="M12.5854 23.3739C15.0654 23.3739 17.1734 22.5826 18.7234 21.1826L15.7474 18.9305C14.9414 19.4783 13.8254 19.7826 12.5854 19.7826C10.1674 19.7826 8.12137 18.2 7.37737 16.0696H4.27734V18.3826C5.82734 21.3652 8.92737 23.3739 12.5854 23.3739Z" fill="#34A853"/>
<path d="M7.37716 16.0696C7.19116 15.5217 7.06716 14.913 7.06716 14.3043C7.06716 13.6956 7.19116 13.0869 7.37716 12.5391V10.2261H4.27716C3.65716 11.4435 3.28516 12.8435 3.28516 14.3043C3.28516 15.7652 3.65716 17.1653 4.27716 18.3827L7.37716 16.0696Z" fill="#FABB05"/>
<path d="M12.5858 8.82612C13.9498 8.82612 15.1898 9.31308 16.1198 10.1653L18.7858 7.54786C17.1738 6.08699 15.0658 5.17395 12.5858 5.17395C8.98984 5.17395 5.82784 7.18265 4.33984 10.1653L7.43984 12.4783C8.12184 10.4087 10.1678 8.82612 12.5858 8.82612Z" fill="#E94235"/>
<path d="M27.5372 7.50257V13.3461H31.1952C32.0632 13.3461 32.8072 13.0417 33.3652 12.4939C33.9232 11.9461 34.2332 11.2156 34.2332 10.4243C34.2332 9.63301 33.9232 8.96344 33.3652 8.41562C32.8072 7.80692 32.0632 7.50257 31.1952 7.50257H27.5372ZM27.5372 15.3547V22.1113H25.3672V5.43298H31.1332C32.6212 5.43298 33.8612 5.91994 34.8532 6.89388C35.9072 7.86779 36.4032 9.02431 36.4032 10.4243C36.4032 11.8243 35.9072 13.0417 34.8532 13.9547C33.8612 14.9287 32.6212 15.3547 31.1332 15.3547H27.5372Z" fill="#6D6D6D"/>
<path d="M38.6343 18.6417C38.6343 19.1895 38.8823 19.6764 39.3783 20.0417C39.8743 20.4069 40.4323 20.5895 41.0523 20.5895C41.9823 20.5895 42.7883 20.2851 43.5323 19.6156C44.2763 18.946 44.5863 18.1547 44.5863 17.2417C43.9043 16.6938 42.9743 16.4504 41.7343 16.4504C40.8663 16.4504 40.1223 16.633 39.5023 17.0591C38.9443 17.4851 38.6343 18.033 38.6343 18.6417ZM41.4863 10.3634C43.0983 10.3634 44.4003 10.7895 45.3303 11.6417C46.2603 12.4938 46.7563 13.6504 46.7563 15.1112V22.1721H44.6483V20.5895H44.5243C43.5943 21.8678 42.4163 22.5373 40.9283 22.5373C39.6263 22.5373 38.5723 22.1721 37.7043 21.4417C36.8363 20.7112 36.4023 19.7373 36.4023 18.6417C36.4023 17.4851 36.8363 16.5112 37.7663 15.8417C38.6963 15.1721 39.8743 14.8069 41.4243 14.8069C42.7263 14.8069 43.7803 15.0504 44.6483 15.4764V14.9895C44.6483 14.2591 44.3383 13.5895 43.7183 13.1025C43.0983 12.5547 42.4163 12.3112 41.6103 12.3112C40.3703 12.3112 39.4403 12.7982 38.6963 13.833L36.7743 12.6156C37.8283 11.0938 39.3783 10.3634 41.4863 10.3634Z" fill="#6D6D6D"/>
<path d="M58.6526 10.704L51.3986 27.1388H49.1666L51.8326 21.417L47.0586 10.704H49.4146L52.8866 18.9214H52.9486L56.2966 10.704H58.6526Z" fill="#6D6D6D"/>
</svg>
