<svg width="70" height="26" viewBox="0 0 70 26" fill="none" xmlns="http://www.w3.org/2000/svg">
<path d="M21.7025 4.66663C21.7025 4.66663 19.3925 4.66663 18.7625 6.8194C18.2025 8.83329 16.6625 14.3194 16.5925 14.5277H16.1725C16.1725 14.5277 14.5625 8.90274 14.0025 6.8194C13.3725 4.66663 11.0625 4.66663 11.0625 4.66663H5.8125V21.3333H11.0625V11.4722H11.2725H11.4825L14.5625 21.3333H18.2025L21.2825 11.4722H21.7025V21.3333H26.9525V4.66663H21.7025Z" fill="#4DB45E"/>
<path d="M40.9481 4.66663C40.9481 4.66663 39.4081 4.80551 38.7081 6.40274L34.9981 14.5277H34.5781V4.66663H29.3281V21.3333H34.2981C34.2981 21.3333 35.9081 21.1944 36.6081 19.5972L40.2481 11.4722H40.6681V21.3333H45.9181V4.66663H40.9481Z" fill="#4DB45E"/>
<path d="M48.3008 12.2361V21.3333H53.5508V15.9861H59.2208C61.6708 15.9861 63.8408 14.3889 64.6108 12.2361C64.5408 12.2361 48.3008 12.2361 48.3008 12.2361Z" fill="#4DB45E"/>
<path d="M59.2212 4.66663H47.5312C48.0912 7.79163 50.4712 10.3611 53.6212 11.1944C54.3212 11.4027 55.0212 11.5416 55.7912 11.5416H64.8212C64.8912 11.125 64.9612 10.7777 64.9612 10.3611C64.8912 7.23607 62.3712 4.66663 59.2212 4.66663Z" fill="url(#paint0_linear_1802_5227)"/>
<defs>
<linearGradient id="paint0_linear_1802_5227" x1="47.5016" y1="8.10413" x2="64.9024" y2="8.10413" gradientUnits="userSpaceOnUse">
<stop offset="0.3" stop-color="#00B4E6"/>
<stop offset="1" stop-color="#088CCB"/>
</linearGradient>
</defs>
</svg>
