<svg width="58" height="28" viewBox="0 0 58 28" fill="none" xmlns="http://www.w3.org/2000/svg">
<path d="M25.4627 22.5109H21.0547L23.7807 5.54785H28.1887L25.4627 22.5109Z" fill="#0066B2"/>
<path d="M17.3997 5.54783L13.2237 17.2283L12.7597 14.7044L11.3097 7.07392C11.3097 7.07392 11.1357 5.54783 9.22171 5.54783H2.31972L2.26172 5.78261C2.26172 5.78261 4.34972 6.25218 6.84371 7.71957L10.6137 22.4522H15.1377L22.0977 5.48914L17.3997 5.54783Z" fill="#0066B2"/>
<path d="M51.7373 22.5109H55.7393L52.2593 5.54785H48.7213C47.0973 5.54785 46.6913 6.83917 46.6913 6.83917L40.1953 22.5109H44.7193L45.6473 19.987H51.2153L51.7373 22.5109ZM46.9233 16.4653L49.2433 10.1261L50.5193 16.4653H46.9233Z" fill="#0066B2"/>
<path d="M40.5448 9.59785L41.1828 5.95872C41.1828 5.95872 39.2688 5.19568 37.2388 5.19568C35.0928 5.19568 29.9308 6.13481 29.9308 10.8305C29.9308 15.2326 35.9628 15.2913 35.9628 17.5805C35.9628 19.8696 30.5688 19.4587 28.7708 17.9913L28.1328 21.8065C28.1328 21.8065 30.1048 22.7457 33.0628 22.7457C36.0208 22.7457 40.5448 21.1609 40.5448 16.9348C40.5448 12.5326 34.4548 12.1218 34.4548 10.1848C34.4548 8.30655 38.6888 8.54133 40.5448 9.59785Z" fill="#0066B2"/>
<path d="M12.7597 14.7044L11.3097 7.07395C11.3097 7.07395 11.1357 5.54785 9.22171 5.54785H2.31972L2.26172 5.78263C2.26172 5.78263 5.56772 6.48699 8.75771 9.0696C11.7737 11.5935 12.7597 14.7044 12.7597 14.7044Z" fill="#F9A533"/>
</svg>
